<svg data-v-423bf9ae="" xmlns="http://www.w3.org/2000/svg" viewBox="0 0 310 90" class="iconLeft">
    <!---->
    <defs data-v-423bf9ae="">
        <linearGradient data-v-423bf9ae="" gradientTransform="rotate(25)" id="06d7602c-5ee9-4b3e-be36-f0b212eca791"
            x1="0%" y1="0%" x2="100%" y2="0%">
            <stop data-v-423bf9ae="" offset="0%" style="stop-color: rgb(81, 6, 255); stop-opacity: 1;"></stop>
            <stop data-v-423bf9ae="" offset="100%" style="stop-color: rgb(97, 203, 242); stop-opacity: 1;"></stop>
        </linearGradient>
    </defs>
    <!---->
    <g data-v-423bf9ae="" id="6620f590-932c-464c-b696-e6eb582311e3" fill="#61CBF2"
        transform="matrix(3.811943915955001,0,0,3.811943915955001,59.193846072111086,3.10673398795128)">
        <path
            d="M10.91 8.71C10.91 5.74 8.68 3.40 5.99 3.40C5.70 3.40 0.90 3.91 0.90 8.71C0.90 11.73 3.12 13.99 5.82 13.99C6.10 13.99 10.91 13.50 10.91 8.71ZM6.26 13.26C3.91 13.26 2.31 10.51 2.31 7.94C2.31 5.91 3.37 4.12 5.59 4.12C7.95 4.12 9.48 6.87 9.48 9.44C9.48 11.54 8.47 13.26 6.26 13.26ZM16.41 7.39C16.44 7.21 16.45 7.04 16.55 6.87C16.55 6.76 16.45 6.71 16.45 6.71C15.46 6.80 15.01 6.80 14.43 6.80C14.43 5.81 14.56 4.34 14.56 4.34C14.48 4.26 14.39 4.26 14.31 4.26C13.76 4.91 13.24 5.12 13.24 5.12C13.24 5.12 13.26 5.91 13.26 6.31C13.26 6.47 13.26 6.80 13.15 6.80L12.15 6.80C12.12 6.99 12.12 7.11 12.03 7.31C12.03 7.42 12.12 7.45 12.12 7.45C12.12 7.45 12.59 7.43 13.16 7.43C13.26 7.43 13.26 7.73 13.26 8.26L13.26 11.51C13.26 12.98 13.71 13.99 14.60 13.99C15.71 13.64 16.11 13.47 16.95 13.02C16.95 12.80 16.83 12.66 16.74 12.63C16.14 12.88 15.82 13.02 15.22 13.02C14.42 13.02 14.42 11.37 14.42 10.70L14.42 7.42ZM24.53 10.29C24.53 8.22 22.99 6.58 21.03 6.58C18.93 6.92 17.40 7.98 17.40 10.29C17.40 12.40 18.96 13.99 20.92 13.99C23.00 13.65 24.53 12.60 24.53 10.29ZM21.22 13.38C19.60 13.38 18.69 11.56 18.69 9.74C18.69 8.33 19.24 7.17 20.75 7.17C22.37 7.17 23.24 9.00 23.24 10.81C23.24 12.26 22.74 13.38 21.22 13.38ZM29.55 7.45C29.60 7.60 29.75 8.37 29.78 8.54C29.83 8.55 29.90 8.57 29.97 8.57C30.07 8.57 30.14 8.55 30.20 8.51C30.25 7.94 30.35 7.17 30.42 6.94C30.09 6.80 29.18 6.58 28.50 6.58C27.43 6.58 26.04 7.08 26.04 8.54C26.04 9.52 26.78 10.11 27.40 10.40L28.45 10.91C28.57 10.98 29.61 11.35 29.61 12.26C29.61 13.10 28.95 13.44 28.22 13.44C27.48 13.44 26.94 13.05 26.81 12.92C26.56 12.63 26.43 12.12 26.32 11.84C26.28 11.82 26.22 11.82 26.19 11.82C26.08 11.82 26.00 11.86 25.91 11.91C26.03 12.52 26.14 13.26 26.17 13.66C26.47 13.80 27.37 13.99 28.15 13.99C29.46 13.99 30.70 13.24 30.70 11.91C30.70 10.68 29.51 10.05 29.11 9.86L28.01 9.34C27.55 9.11 27.12 8.68 27.12 8.18C27.12 7.45 27.65 7.08 28.34 7.08C29.05 7.08 29.46 7.36 29.55 7.45ZM35.60 6.58C35.27 6.58 32.13 7.06 32.13 10.35C32.13 12.29 33.15 13.99 35.36 13.99C35.90 13.99 36.44 13.76 36.50 13.72L37.86 12.80C37.86 12.59 37.73 12.52 37.73 12.52C36.88 12.88 36.40 13.05 35.67 13.05C33.98 13.05 33.29 11.40 33.29 9.79C33.29 8.57 34.09 7.14 35.06 7.14C35.94 7.14 36.48 7.62 37.00 8.23C37.69 8.06 37.84 7.39 37.84 7.39C37.32 6.92 36.61 6.58 35.60 6.58ZM45.64 10.29C45.64 8.22 44.10 6.58 42.14 6.58C40.04 6.92 38.51 7.98 38.51 10.29C38.51 12.40 40.07 13.99 42.03 13.99C44.11 13.65 45.64 12.60 45.64 10.29ZM42.34 13.38C40.71 13.38 39.80 11.56 39.80 9.74C39.80 8.33 40.35 7.17 41.86 7.17C43.48 7.17 44.35 9.00 44.35 10.81C44.35 12.26 43.85 13.38 42.34 13.38ZM48.82 13.78C48.93 13.80 49.73 13.99 50.05 13.99C50.50 13.99 53.98 13.65 53.98 10.29C53.98 8.34 52.64 6.83 51.35 6.58C50.19 7.04 50.01 7.11 48.89 7.81C48.85 7.04 48.34 6.58 48.12 6.58C48.12 6.58 47.56 6.97 46.49 7.15C46.49 7.15 46.48 7.21 46.48 7.28C46.48 7.34 46.48 7.43 46.54 7.53C46.70 7.53 46.89 7.50 47.03 7.50C47.59 7.50 47.70 8.04 47.70 9.46L47.70 12.88C47.70 14.56 47.67 16.69 47.56 17.47C47.50 17.91 47.36 18.31 46.52 18.51C46.52 18.51 46.49 18.56 46.49 18.62C46.49 18.69 46.52 18.80 46.58 18.86C47.33 18.75 48.12 18.75 48.54 18.75C48.90 18.75 49.78 18.79 50.55 18.79C50.58 18.70 50.58 18.63 50.58 18.58C50.58 18.45 50.55 18.35 50.55 18.35C49.95 18.35 49.41 18.35 48.99 18.31C48.85 18.30 48.82 15.72 48.82 14.56ZM48.85 8.44C49.29 8.06 49.97 7.56 50.64 7.56C51.67 7.56 52.81 9.07 52.81 10.81C52.81 12.18 51.97 13.38 50.74 13.38C50.40 13.38 48.82 12.91 48.82 12.60C48.82 11.45 48.82 9.60 48.85 8.44ZM57.34 11.06C57.34 10.46 57.36 7.39 57.51 6.52C57.51 6.52 57.47 6.36 57.30 6.36C56.91 6.55 56.69 6.66 56.22 6.83C55.72 7.00 55.50 7.04 55.05 7.14C55.05 7.14 55.01 7.21 55.01 7.32C55.01 7.38 55.01 7.45 55.05 7.50C55.05 7.50 55.38 7.53 55.57 7.55C56.27 7.62 56.28 8.23 56.28 9.34L56.28 10.68C56.28 11.24 56.28 12.18 56.21 12.43C56.10 12.85 55.99 13.27 55.15 13.47C55.15 13.47 55.12 13.52 55.12 13.58C55.12 13.65 55.15 13.75 55.20 13.82C55.96 13.72 56.63 13.71 57.05 13.71C57.27 13.71 57.85 13.75 58.31 13.75C58.35 13.66 58.35 13.59 58.35 13.54C58.35 13.41 58.31 13.31 58.31 13.31C58.02 13.31 57.74 13.31 57.53 13.27C57.40 13.26 57.34 11.70 57.34 11.06ZM56.99 4.76C57.30 4.65 57.74 4.30 57.92 4.06C57.83 3.75 57.55 3.36 57.23 3.12C56.95 3.23 56.50 3.57 56.28 3.84C56.41 4.17 56.66 4.52 56.99 4.76ZM64.47 12.03C64.47 10.92 64.51 8.90 64.51 8.61C64.51 7.60 64.01 6.58 62.55 6.58C62.41 6.58 60.87 7.06 60.62 7.22C60.09 7.66 59.89 7.95 59.89 8.32C59.89 8.60 59.93 8.85 60.45 8.85C60.76 8.85 61.05 8.74 61.05 8.67C61.05 8.37 61.05 8.05 61.24 7.67C61.45 7.22 62.24 7.14 62.44 7.14C62.94 7.14 63.34 7.59 63.34 8.67L63.34 10.00C61.52 10.35 60.59 10.74 60.26 10.91C59.93 11.06 59.64 11.52 59.64 12.10C59.64 13.27 60.59 13.99 61.12 13.99C62.06 13.71 62.69 13.37 63.35 12.96C63.39 13.38 63.69 13.86 64.12 13.99C64.20 13.92 64.62 13.59 65.66 13.41C65.66 13.41 65.69 13.36 65.69 13.26C65.69 13.20 65.69 13.10 65.63 13.03C65.46 13.03 65.25 13.05 65.13 13.05C64.57 13.05 64.47 12.49 64.47 12.03ZM61.78 13.15C61.26 13.15 60.89 12.42 60.89 12.03C60.89 11.58 61.01 11.30 61.26 11.17C61.73 10.91 62.29 10.64 63.34 10.50C63.34 11.58 63.29 12.40 63.29 12.40C62.96 12.71 62.24 13.15 61.78 13.15Z">
        </path>
    </g>
    <!---->
    <g data-v-423bf9ae="" id="2a9be3e1-9271-4e49-b436-e8765a11bf92"
        transform="matrix(1.2631756137786763,0,0,1.2631756137786763,-38.50442629069312,-15.257061502542037)"
        stroke="none" fill="#61CBF2">
        <path
            d="M45.378 82.875v-2.999a.75.75 0 0 1 .75-.75h.001V38.625h-.001a.75.75 0 0 1-.75-.75v-2.999a.75.75 0 0 1 .75-.75h2.25v-5.251h-3V12.376h16.501v1.5h2.243c.413 0 .75.337.75.75v12.001a.75.75 0 0 1-.75.75h-2.243v1.498h-3v5.251h2.25c.413 0 .75.337.75.75v2.999a.75.75 0 0 1-.75.75h-.001v40.501h.001c.413 0 .75.337.75.75v2.999a.75.75 0 0 1-.75.75H46.128a.75.75 0 0 1-.75-.75zm15.001-.75v-1.499H46.878v1.499h13.501zm-.751-2.999V38.625H47.629v40.501h11.999zm.751-42.001v-1.499H46.878v1.499h13.501zM31.128 22.796v-4.34c5.378-.194 9.794-2.423 10.916-5.33h1.834v15h-1.834c-1.122-2.907-5.538-5.136-10.916-5.33zm32.244 3.081V15.376h-1.493v10.501h1.493zm-20.994-5.031v-.44c0-.292-.255-.53-.566-.53h-7.87c-.311 0-.564.238-.564.53v.44c0 .292.253.53.564.53h7.87c.311 0 .566-.238.566-.53z"
            font-family="Times New Roman" font-size="16"></path>
    </g>
    <!---->
</svg>