<svg width="620" height="152" viewBox="0 0 620 152" fill="none" xmlns="http://www.w3.org/2000/svg">
<path d="M95.9306 54.0864C95.9306 25.657 74.5968 3.25798 48.8622 3.25798C46.0879 3.25798 0.16748 8.13981 0.16748 54.0864C0.16748 82.9945 21.4057 104.628 47.2359 104.628C49.9146 104.628 95.9306 99.9373 95.9306 54.0864ZM51.4453 97.64C28.9634 97.64 13.6566 71.3164 13.6566 46.7158C13.6566 27.2842 23.7974 10.15 45.0355 10.15C67.6131 10.15 82.2502 36.4736 82.2502 61.0742C82.2502 81.1758 72.5878 97.64 51.4453 97.64ZM148.548 41.4511C148.835 39.7281 148.93 38.1008 149.887 36.4736C149.887 35.4206 148.93 34.942 148.93 34.942C139.459 35.8035 135.154 35.8035 129.606 35.8035C129.606 26.327 130.849 12.2559 130.849 12.2559C130.084 11.4901 129.223 11.4901 128.458 11.4901C123.196 17.712 118.221 19.7222 118.221 19.7222C118.221 19.7222 118.413 27.2842 118.413 31.1131C118.413 32.6447 118.412 35.8035 117.36 35.8035H107.793C107.506 37.6222 107.506 38.7709 106.645 40.6853C106.645 41.7383 107.506 42.0254 107.506 42.0254C107.506 42.0254 112.003 41.834 117.456 41.834C118.413 41.834 118.413 44.7057 118.413 49.7789V80.8886C118.413 94.9598 122.718 104.628 131.232 104.628C141.851 101.277 145.678 99.6502 153.714 95.3427C153.714 93.2368 152.566 91.8967 151.705 91.6095C145.965 94.0026 142.903 95.3427 137.163 95.3427C129.51 95.3427 129.51 79.5485 129.51 73.1351V41.7383L148.548 41.4511ZM226.23 69.2105C226.23 49.3961 211.497 33.6976 192.746 33.6976C172.656 36.9522 158.019 47.0987 158.019 69.2105C158.019 89.4079 172.943 104.628 191.694 104.628C211.593 101.373 226.23 91.3223 226.23 69.2105ZM194.564 98.7887C179.066 98.7887 170.36 81.3672 170.36 63.9458C170.36 50.449 175.622 39.3452 190.067 39.3452C205.566 39.3452 213.889 56.8624 213.889 74.1881C213.889 88.0678 209.105 98.7887 194.564 98.7887ZM274.255 42.0254C274.733 43.4613 276.168 50.8319 276.455 52.4592C276.934 52.5549 277.603 52.7463 278.273 52.7463C279.23 52.7463 279.899 52.5549 280.473 52.172C280.952 46.7158 281.908 39.3452 282.578 37.1436C279.421 35.8035 270.715 33.6976 264.21 33.6976C253.973 33.6976 240.676 38.4837 240.676 52.4592C240.676 61.8399 247.755 67.4875 253.686 70.2635L263.731 75.1453C264.879 75.8154 274.829 79.3571 274.829 88.0678C274.829 96.1085 268.515 99.363 261.531 99.363C254.452 99.363 249.286 95.6299 248.042 94.3855C245.65 91.6095 244.407 86.7277 243.354 84.0475C242.972 83.856 242.398 83.856 242.111 83.856C241.058 83.856 240.293 84.2389 239.432 84.7175C240.58 90.5566 241.632 97.64 241.919 101.469C244.789 102.809 253.399 104.628 260.861 104.628C273.394 104.628 285.257 97.4486 285.257 84.7175C285.257 72.9437 273.872 66.9132 270.045 65.0945L259.522 60.1169C255.121 57.9153 251.008 53.7993 251.008 49.0132C251.008 42.0255 256.078 38.4837 262.679 38.4837C269.471 38.4837 273.394 41.1639 274.255 42.0254ZM332.134 33.6976C328.977 33.6976 298.937 38.2923 298.937 69.7849C298.937 88.355 308.695 104.628 329.838 104.628C335.004 104.628 340.17 102.426 340.744 102.043L353.755 93.2368C353.755 91.2266 352.511 90.5566 352.511 90.5566C344.379 94.0026 339.787 95.6299 332.803 95.6299C316.636 95.6299 310.034 79.8357 310.034 64.4244C310.034 52.7463 317.688 39.0581 326.968 39.0581C335.386 39.0581 340.552 43.6527 345.527 49.4918C352.128 47.8645 353.563 41.4511 353.563 41.4511C348.588 36.9522 341.796 33.6976 332.134 33.6976ZM428.184 69.2105C428.184 49.3961 413.451 33.6976 394.7 33.6976C374.61 36.9522 359.973 47.0987 359.973 69.2105C359.973 89.4079 374.897 104.628 393.648 104.628C413.547 101.373 428.184 91.3223 428.184 69.2105ZM396.614 98.7887C381.02 98.7887 372.314 81.3672 372.314 63.9458C372.314 50.449 377.576 39.3452 392.022 39.3452C407.52 39.3452 415.843 56.8624 415.843 74.1881C415.843 88.0678 411.059 98.7887 396.614 98.7887ZM458.606 102.618C459.658 102.809 467.312 104.628 470.373 104.628C474.678 104.628 507.971 101.373 507.971 69.2105C507.971 50.5447 495.151 36.0907 482.81 33.6976C471.712 38.1008 469.991 38.7709 459.276 45.4714C458.893 38.1008 454.014 33.6976 451.909 33.6976C451.909 33.6976 446.552 37.4308 436.316 39.1538C436.316 39.1538 436.22 39.7281 436.22 40.3982C436.22 40.9725 436.22 41.834 436.794 42.7912C438.325 42.7912 440.142 42.5041 441.482 42.5041C446.839 42.5041 447.891 47.6731 447.891 61.2656V94.0026C447.891 110.084 447.604 130.473 446.552 137.939C445.978 142.151 444.639 145.98 436.603 147.894C436.603 147.894 436.316 148.373 436.316 148.947C436.316 149.617 436.603 150.67 437.177 151.244C444.352 150.191 451.909 150.191 455.927 150.191C459.371 150.191 467.79 150.574 475.157 150.574C475.444 149.713 475.444 149.043 475.444 148.564C475.444 147.32 475.157 146.363 475.157 146.363C469.417 146.363 464.25 146.363 460.232 145.98C458.893 145.884 458.606 121.188 458.606 110.084V102.618ZM458.893 51.5019C463.102 47.8645 469.608 43.0784 476.018 43.0784C485.871 43.0784 496.777 57.5324 496.777 74.1881C496.777 87.302 488.741 98.7887 476.974 98.7887C473.722 98.7887 458.606 94.2897 458.606 91.3224C458.606 80.3143 458.606 62.6057 458.893 51.5019ZM540.115 76.5811C540.115 70.8378 540.306 41.4511 541.741 33.1233C541.741 33.1233 541.358 31.5917 539.732 31.5917C536.001 33.4105 533.896 34.4634 529.4 36.0907C524.617 37.718 522.512 38.1008 518.207 39.0581C518.207 39.0581 517.824 39.7281 517.824 40.7811C517.824 41.3554 517.824 42.0255 518.207 42.5041C518.207 42.5041 521.364 42.7912 523.182 42.9827C529.878 43.6527 529.974 49.4918 529.974 60.1169V72.9437C529.974 78.3041 529.974 87.302 529.304 89.6951C528.252 93.7154 527.2 97.7357 519.164 99.6502C519.164 99.6502 518.877 100.129 518.877 100.703C518.877 101.373 519.164 102.33 519.642 103C526.913 102.043 533.322 101.948 537.34 101.948C539.445 101.948 544.994 102.33 549.395 102.33C549.777 101.469 549.777 100.799 549.777 100.32C549.777 99.0758 549.395 98.1186 549.395 98.1186C546.62 98.1186 543.941 98.1186 541.932 97.7357C540.689 97.64 540.115 82.7074 540.115 76.5811ZM536.766 16.2762C539.732 15.2233 543.941 11.873 545.664 9.57564C544.802 6.60825 542.124 2.87509 539.062 0.577759C536.384 1.6307 532.079 4.88526 529.974 7.46975C531.218 10.6286 533.609 13.9789 536.766 16.2762ZM608.326 85.8662C608.326 75.241 608.708 55.9052 608.708 53.1292C608.708 43.4613 603.925 33.6976 589.958 33.6976C588.618 33.6976 573.885 38.2923 571.494 39.8238C566.423 44.0356 564.51 46.8116 564.51 50.3533C564.51 53.0335 564.893 55.4266 569.867 55.4266C572.833 55.4266 575.607 54.3736 575.607 53.7036C575.607 50.8319 575.607 47.7688 577.425 44.1313C579.434 39.8238 586.992 39.0581 588.905 39.0581C593.689 39.0581 597.515 43.3656 597.515 53.7036V66.4346C580.104 69.7849 571.207 73.518 568.05 75.1453C564.893 76.5811 562.118 80.9844 562.118 86.5362C562.118 97.7357 571.207 104.628 576.277 104.628C585.27 101.948 591.297 98.693 597.611 94.7683C597.994 98.7887 600.864 103.383 604.977 104.628C605.743 103.958 609.761 100.799 619.71 99.0758C619.71 99.0758 619.997 98.5972 619.997 97.64C619.997 97.0657 619.997 96.1085 619.423 95.4384C617.797 95.4384 615.788 95.6299 614.64 95.6299C609.282 95.6299 608.326 90.2694 608.326 85.8662ZM582.591 96.5871C577.616 96.5871 574.077 89.5993 574.077 85.8662C574.077 81.5587 575.225 78.8785 577.616 77.6341C582.113 75.1453 587.47 72.5608 597.515 71.2207C597.515 81.5587 597.037 89.4079 597.037 89.4079C593.88 92.3753 586.992 96.5871 582.591 96.5871Z" fill="#008080"/>
</svg>
